<svg xmlns="http://www.w3.org/2000/svg" xmlns:xlink="http://www.w3.org/1999/xlink" fill="none" version="1.1" width="554" height="554" viewBox="0 0 554 554"><defs><clipPath id="master_svg0_6_6"><rect x="0" y="0" width="554" height="554" rx="0"/></clipPath></defs><g clip-path="url(#master_svg0_6_6)"><rect x="0" y="0" width="554" height="554" rx="0" fill="#FFFFFF" fill-opacity="1"/><g><path d="M67,107.5L184,107.5L184,267.5L242.5,267.5L242.5,78L67,78L67,107.5Z" fill="#000000" fill-opacity="1"/><path d="M66.5,77.5L66.5,108L183.5,108L183.5,268L243,268L243,77.5L66.5,77.5ZM67.5,107L184.5,107L184.5,267L242,267L242,78.5L67.5,78.5L67.5,107Z" fill-rule="evenodd" fill="#D8D8D8" fill-opacity="1"/></g><g><path d="M311,107.5L428,107.5L428,267.5L486.5,267.5L486.5,78L311,78L311,107.5Z" fill="#000000" fill-opacity="1"/><path d="M310.5,77.5L310.5,108L427.5,108L427.5,268L487,268L487,77.5L310.5,77.5ZM311.5,107L428.5,107L428.5,267L486,267L486,78.5L311.5,78.5L311.5,107Z" fill-rule="evenodd" fill="#D8D8D8" fill-opacity="1"/></g><g><ellipse cx="124.5" cy="172.5" rx="30.5" ry="30.5" fill="#000000" fill-opacity="1"/></g><g><ellipse cx="368.5" cy="172.5" rx="30.5" ry="30.5" fill="#000000" fill-opacity="1"/></g><g><path d="M70.5,346L120,521L502,486L483,309.5L70.5,346Z" fill="#000000" fill-opacity="1"/><path d="M502.552,486.452L483.445,308.958704L482.956,309.001946L69.854556,345.5552L119.6319,521.5360000000001L502.552,486.452ZM482.555,310.041296L501.448,485.548L120.3681,520.4639999999999L71.145444,346.4448L482.555,310.041296Z" fill-rule="evenodd" fill="#000000" fill-opacity="1"/></g><g><path d="M147,382L172.5,477.5L455.5,440L448,382L147,382Z" fill="#FFFFFF" fill-opacity="1"/></g><g><path d="M161.30825,483.8799Q310.499,413.9014,463.936,459.5441L471.064,435.58182Q308.501,387.2247,150.69175,461.2461L161.30825,483.8799Z" fill-rule="evenodd" fill="#000000" fill-opacity="1"/></g></g></svg>